<svg width="217" height="127" viewBox="0 0 217 127" fill="none" xmlns="http://www.w3.org/2000/svg">
<path d="M45.625 36.1875C45.625 38.0417 45.2708 39.7917 44.5625 41.4375C43.875 43.0625 42.9167 44.4896 41.6875 45.7188C40.4792 46.9271 39.0521 47.8854 37.4062 48.5938C35.7812 49.2812 34.0417 49.625 32.1875 49.625C30.5208 49.625 28.9167 49.3333 27.375 48.75C25.8542 48.1667 24.4792 47.3125 23.25 46.1875C22.0208 47.3125 20.6354 48.1667 19.0938 48.75C17.5521 49.3333 15.9479 49.625 14.2812 49.625C12.4271 49.625 10.6771 49.2812 9.03125 48.5938C7.40625 47.8854 5.97917 46.9271 4.75 45.7188C3.54167 44.4896 2.58333 43.0625 1.875 41.4375C1.1875 39.7917 0.84375 38.0417 0.84375 36.1875V4.1875H9.8125V36.1875C9.8125 36.8125 9.92708 37.4062 10.1562 37.9688C10.3854 38.5104 10.6979 38.9896 11.0938 39.4062C11.5104 39.8021 11.9896 40.1146 12.5312 40.3438C13.0729 40.5729 13.6562 40.6875 14.2812 40.6875C14.9062 40.6875 15.4896 40.5729 16.0312 40.3438C16.5729 40.1146 17.0417 39.8021 17.4375 39.4062C17.8542 38.9896 18.1771 38.5104 18.4062 37.9688C18.6354 37.4062 18.75 36.8125 18.75 36.1875V4.1875H27.7188V36.1875C27.7188 36.8125 27.8333 37.4062 28.0625 37.9688C28.2917 38.5104 28.6042 38.9896 29 39.4062C29.4167 39.8021 29.8958 40.1146 30.4375 40.3438C30.9792 40.5729 31.5625 40.6875 32.1875 40.6875C32.8125 40.6875 33.3958 40.5729 33.9375 40.3438C34.4792 40.1146 34.9479 39.8021 35.3438 39.4062C35.7604 38.9896 36.0833 38.5104 36.3125 37.9688C36.5625 37.4062 36.6875 36.8125 36.6875 36.1875V4.1875H45.625V36.1875ZM84.7188 49H82.6562L79.3438 44.4062C78.5312 45.1354 77.6667 45.8229 76.75 46.4688C75.8542 47.0938 74.9062 47.6458 73.9062 48.125C72.9062 48.5833 71.875 48.9479 70.8125 49.2188C69.7708 49.4896 68.7083 49.625 67.625 49.625C65.2708 49.625 63.0521 49.2292 60.9688 48.4375C58.9062 47.6458 57.0938 46.5 55.5312 45C53.9896 43.4792 52.7708 41.625 51.875 39.4375C50.9792 37.25 50.5312 34.7604 50.5312 31.9688C50.5312 29.3646 50.9792 26.9792 51.875 24.8125C52.7708 22.625 53.9896 20.75 55.5312 19.1875C57.0938 17.625 58.9062 16.4167 60.9688 15.5625C63.0521 14.6875 65.2708 14.25 67.625 14.25C68.7083 14.25 69.7812 14.3854 70.8438 14.6562C71.9062 14.9271 72.9375 15.3021 73.9375 15.7812C74.9375 16.2604 75.8854 16.8229 76.7812 17.4688C77.6979 18.1146 78.5521 18.8125 79.3438 19.5625L82.6562 15.5938H84.7188V49ZM76.125 31.9688C76.125 30.8021 75.8958 29.6771 75.4375 28.5938C75 27.4896 74.3958 26.5208 73.625 25.6875C72.8542 24.8333 71.9479 24.1562 70.9062 23.6562C69.8854 23.1354 68.7917 22.875 67.625 22.875C66.4583 22.875 65.3542 23.0729 64.3125 23.4688C63.2917 23.8646 62.3958 24.4479 61.625 25.2188C60.875 25.9896 60.2812 26.9479 59.8438 28.0938C59.4062 29.2188 59.1875 30.5104 59.1875 31.9688C59.1875 33.4271 59.4062 34.7292 59.8438 35.875C60.2812 37 60.875 37.9479 61.625 38.7188C62.3958 39.4896 63.2917 40.0729 64.3125 40.4688C65.3542 40.8646 66.4583 41.0625 67.625 41.0625C68.7917 41.0625 69.8854 40.8125 70.9062 40.3125C71.9479 39.7917 72.8542 39.1146 73.625 38.2812C74.3958 37.4271 75 36.4583 75.4375 35.375C75.8958 34.2708 76.125 33.1354 76.125 31.9688ZM99.8438 49H91.25V2.21875H99.8438V49ZM114.969 49H106.375V2.21875H114.969V31.7188L127.688 15.5938H137.5L126.406 29.5312L137.5 49H127.688L120.906 36.8438L114.969 44.7188V49ZM150.938 6.4375C150.938 7.22917 150.781 7.96875 150.469 8.65625C150.177 9.34375 149.771 9.94792 149.25 10.4688C148.729 10.9688 148.115 11.375 147.406 11.6875C146.719 11.9792 145.979 12.125 145.188 12.125C144.396 12.125 143.646 11.9792 142.938 11.6875C142.25 11.375 141.646 10.9688 141.125 10.4688C140.625 9.94792 140.219 9.34375 139.906 8.65625C139.615 7.96875 139.469 7.22917 139.469 6.4375C139.469 5.66667 139.615 4.9375 139.906 4.25C140.219 3.54167 140.625 2.9375 141.125 2.4375C141.646 1.91667 142.25 1.51042 142.938 1.21875C143.646 0.90625 144.396 0.75 145.188 0.75C145.979 0.75 146.719 0.90625 147.406 1.21875C148.115 1.51042 148.729 1.91667 149.25 2.4375C149.771 2.9375 150.177 3.54167 150.469 4.25C150.781 4.9375 150.938 5.66667 150.938 6.4375ZM149.469 49H140.875V15.5312H149.469V49ZM169.312 40.8125C169.646 40.9167 169.979 40.9896 170.312 41.0312C170.646 41.0521 170.979 41.0625 171.312 41.0625C172.146 41.0625 172.948 40.9479 173.719 40.7188C174.49 40.4896 175.208 40.1667 175.875 39.75C176.562 39.3125 177.167 38.7917 177.688 38.1875C178.229 37.5625 178.667 36.875 179 36.125L185.25 42.4062C184.458 43.5312 183.542 44.5417 182.5 45.4375C181.479 46.3333 180.365 47.0938 179.156 47.7188C177.969 48.3438 176.708 48.8125 175.375 49.125C174.062 49.4583 172.708 49.625 171.312 49.625C168.958 49.625 166.74 49.1875 164.656 48.3125C162.594 47.4375 160.781 46.2188 159.219 44.6562C157.677 43.0938 156.458 41.2396 155.562 39.0938C154.667 36.9271 154.219 34.5521 154.219 31.9688C154.219 29.3229 154.667 26.9062 155.562 24.7188C156.458 22.5312 157.677 20.6667 159.219 19.125C160.781 17.5833 162.594 16.3854 164.656 15.5312C166.74 14.6771 168.958 14.25 171.312 14.25C172.708 14.25 174.073 14.4167 175.406 14.75C176.74 15.0833 178 15.5625 179.188 16.1875C180.396 16.8125 181.521 17.5833 182.562 18.5C183.604 19.3958 184.521 20.4062 185.312 21.5312L169.312 40.8125ZM173.688 23.2188C173.292 23.0729 172.896 22.9792 172.5 22.9375C172.125 22.8958 171.729 22.875 171.312 22.875C170.146 22.875 169.042 23.0938 168 23.5312C166.979 23.9479 166.083 24.5521 165.312 25.3438C164.562 26.1354 163.969 27.0938 163.531 28.2188C163.094 29.3229 162.875 30.5729 162.875 31.9688C162.875 32.2812 162.885 32.6354 162.906 33.0312C162.948 33.4271 163 33.8333 163.062 34.25C163.146 34.6458 163.24 35.0312 163.344 35.4062C163.448 35.7812 163.583 36.1146 163.75 36.4062L173.688 23.2188ZM216.406 22.125V30.625H190.156V22.125H216.406ZM37.0625 91.5938C37.0625 93.6562 36.7917 95.6458 36.25 97.5625C35.7292 99.4583 34.9792 101.24 34 102.906C33.0208 104.552 31.8542 106.062 30.5 107.438C29.1458 108.792 27.6354 109.958 25.9688 110.938C24.3021 111.917 22.5104 112.677 20.5938 113.219C18.6979 113.74 16.7188 114 14.6562 114H1.15625V69.1875H14.6562C16.7188 69.1875 18.6979 69.4583 20.5938 70C22.5104 70.5208 24.3021 71.2708 25.9688 72.25C27.6354 73.2292 29.1458 74.4062 30.5 75.7812C31.8542 77.1354 33.0208 78.6458 34 80.3125C34.9792 81.9583 35.7292 83.7396 36.25 85.6562C36.7917 87.5521 37.0625 89.5312 37.0625 91.5938ZM28.0938 91.5938C28.0938 89.7396 27.7396 88 27.0312 86.375C26.3438 84.75 25.3854 83.3333 24.1562 82.125C22.9479 80.8958 21.5208 79.9271 19.875 79.2188C18.25 78.5104 16.5104 78.1562 14.6562 78.1562H10.1875V105.031H14.6562C16.5104 105.031 18.25 104.688 19.875 104C21.5208 103.292 22.9479 102.333 24.1562 101.125C25.3854 99.8958 26.3438 98.4688 27.0312 96.8438C27.7396 95.1979 28.0938 93.4479 28.0938 91.5938ZM74.4688 96.9688C74.4688 99.4688 74.0208 101.802 73.125 103.969C72.2292 106.115 71.0104 107.979 69.4688 109.562C67.9271 111.125 66.1146 112.365 64.0312 113.281C61.9688 114.177 59.75 114.625 57.375 114.625C55.0208 114.625 52.8021 114.177 50.7188 113.281C48.6562 112.365 46.8438 111.125 45.2812 109.562C43.7396 107.979 42.5208 106.115 41.625 103.969C40.7292 101.802 40.2812 99.4688 40.2812 96.9688C40.2812 94.4271 40.7292 92.0729 41.625 89.9062C42.5208 87.7396 43.7396 85.875 45.2812 84.3125C46.8438 82.7292 48.6562 81.4896 50.7188 80.5938C52.8021 79.6979 55.0208 79.25 57.375 79.25C59.75 79.25 61.9688 79.6771 64.0312 80.5312C66.1146 81.3646 67.9271 82.5625 69.4688 84.125C71.0104 85.6667 72.2292 87.5312 73.125 89.7188C74.0208 91.8854 74.4688 94.3021 74.4688 96.9688ZM65.875 96.9688C65.875 95.5938 65.6458 94.3542 65.1875 93.25C64.75 92.125 64.1458 91.1667 63.375 90.375C62.6042 89.5625 61.6979 88.9479 60.6562 88.5312C59.6354 88.0938 58.5417 87.875 57.375 87.875C56.2083 87.875 55.1042 88.0938 54.0625 88.5312C53.0417 88.9479 52.1458 89.5625 51.375 90.375C50.625 91.1667 50.0312 92.125 49.5938 93.25C49.1562 94.3542 48.9375 95.5938 48.9375 96.9688C48.9375 98.2604 49.1562 99.4583 49.5938 100.562C50.0312 101.667 50.625 102.625 51.375 103.438C52.1458 104.25 53.0417 104.896 54.0625 105.375C55.1042 105.833 56.2083 106.062 57.375 106.062C58.5417 106.062 59.6354 105.844 60.6562 105.406C61.6979 104.969 62.6042 104.354 63.375 103.562C64.1458 102.771 64.75 101.812 65.1875 100.688C65.6458 99.5625 65.875 98.3229 65.875 96.9688ZM103 96.9688C103 95.8021 102.771 94.6771 102.312 93.5938C101.875 92.4896 101.271 91.5208 100.5 90.6875C99.7292 89.8333 98.8229 89.1562 97.7812 88.6562C96.7604 88.1354 95.6667 87.875 94.5 87.875C93.3333 87.875 92.2292 88.0729 91.1875 88.4688C90.1667 88.8646 89.2708 89.4479 88.5 90.2188C87.75 90.9896 87.1562 91.9479 86.7188 93.0938C86.2812 94.2188 86.0625 95.5104 86.0625 96.9688C86.0625 98.3646 86.2812 99.625 86.7188 100.75C87.1562 101.854 87.75 102.802 88.5 103.594C89.2708 104.385 90.1667 105 91.1875 105.438C92.2292 105.854 93.3333 106.062 94.5 106.062C95.6667 106.062 96.7604 105.812 97.7812 105.312C98.8229 104.792 99.7292 104.115 100.5 103.281C101.271 102.427 101.875 101.458 102.312 100.375C102.771 99.2708 103 98.1354 103 96.9688ZM111.594 109.781C111.594 112.135 111.146 114.344 110.25 116.406C109.354 118.469 108.125 120.271 106.562 121.812C105.021 123.354 103.208 124.573 101.125 125.469C99.0625 126.365 96.8542 126.812 94.5 126.812L90.2188 126.75V118.219L94.4375 118.281C95.7708 118.281 96.9062 118.104 97.8438 117.75C98.7812 117.417 99.5729 116.948 100.219 116.344C100.865 115.76 101.375 115.083 101.75 114.312C102.146 113.542 102.458 112.729 102.688 111.875C102.354 112.417 101.875 112.865 101.25 113.219C100.625 113.552 99.9271 113.823 99.1562 114.031C98.4062 114.26 97.6146 114.417 96.7812 114.5C95.9688 114.583 95.2083 114.625 94.5 114.625C92.1458 114.625 89.9271 114.219 87.8438 113.406C85.7812 112.594 83.9688 111.438 82.4062 109.938C80.8646 108.417 79.6458 106.562 78.75 104.375C77.8542 102.188 77.4062 99.7188 77.4062 96.9688C77.4062 94.4479 77.8542 92.1042 78.75 89.9375C79.6458 87.7708 80.8646 85.8958 82.4062 84.3125C83.9688 82.7292 85.7812 81.4896 87.8438 80.5938C89.9271 79.6979 92.1458 79.25 94.5 79.25C95.5833 79.25 96.6562 79.3854 97.7188 79.6562C98.7812 79.9271 99.8125 80.3021 100.812 80.7812C101.812 81.2604 102.76 81.8229 103.656 82.4688C104.573 83.1146 105.427 83.8125 106.219 84.5625L109.531 80.5938H111.594V109.781ZM141.938 96.9688C141.938 95.8021 141.708 94.6771 141.25 93.5938C140.812 92.4896 140.208 91.5208 139.438 90.6875C138.667 89.8333 137.76 89.1562 136.719 88.6562C135.698 88.1354 134.604 87.875 133.438 87.875C132.271 87.875 131.167 88.0729 130.125 88.4688C129.104 88.8646 128.208 89.4479 127.438 90.2188C126.688 90.9896 126.094 91.9479 125.656 93.0938C125.219 94.2188 125 95.5104 125 96.9688C125 98.3646 125.219 99.625 125.656 100.75C126.094 101.854 126.688 102.802 127.438 103.594C128.208 104.385 129.104 105 130.125 105.438C131.167 105.854 132.271 106.062 133.438 106.062C134.604 106.062 135.698 105.812 136.719 105.312C137.76 104.792 138.667 104.115 139.438 103.281C140.208 102.427 140.812 101.458 141.25 100.375C141.708 99.2708 141.938 98.1354 141.938 96.9688ZM150.531 109.781C150.531 112.135 150.083 114.344 149.188 116.406C148.292 118.469 147.062 120.271 145.5 121.812C143.958 123.354 142.146 124.573 140.062 125.469C138 126.365 135.792 126.812 133.438 126.812L129.156 126.75V118.219L133.375 118.281C134.708 118.281 135.844 118.104 136.781 117.75C137.719 117.417 138.51 116.948 139.156 116.344C139.802 115.76 140.312 115.083 140.688 114.312C141.083 113.542 141.396 112.729 141.625 111.875C141.292 112.417 140.812 112.865 140.188 113.219C139.562 113.552 138.865 113.823 138.094 114.031C137.344 114.26 136.552 114.417 135.719 114.5C134.906 114.583 134.146 114.625 133.438 114.625C131.083 114.625 128.865 114.219 126.781 113.406C124.719 112.594 122.906 111.438 121.344 109.938C119.802 108.417 118.583 106.562 117.688 104.375C116.792 102.188 116.344 99.7188 116.344 96.9688C116.344 94.4479 116.792 92.1042 117.688 89.9375C118.583 87.7708 119.802 85.8958 121.344 84.3125C122.906 82.7292 124.719 81.4896 126.781 80.5938C128.865 79.6979 131.083 79.25 133.438 79.25C134.521 79.25 135.594 79.3854 136.656 79.6562C137.719 79.9271 138.75 80.3021 139.75 80.7812C140.75 81.2604 141.698 81.8229 142.594 82.4688C143.51 83.1146 144.365 83.8125 145.156 84.5625L148.469 80.5938H150.531V109.781ZM167.125 71.4375C167.125 72.2292 166.969 72.9688 166.656 73.6562C166.365 74.3438 165.958 74.9479 165.438 75.4688C164.917 75.9688 164.302 76.375 163.594 76.6875C162.906 76.9792 162.167 77.125 161.375 77.125C160.583 77.125 159.833 76.9792 159.125 76.6875C158.438 76.375 157.833 75.9688 157.312 75.4688C156.812 74.9479 156.406 74.3438 156.094 73.6562C155.802 72.9688 155.656 72.2292 155.656 71.4375C155.656 70.6667 155.802 69.9375 156.094 69.25C156.406 68.5417 156.812 67.9375 157.312 67.4375C157.833 66.9167 158.438 66.5104 159.125 66.2188C159.833 65.9062 160.583 65.75 161.375 65.75C162.167 65.75 162.906 65.9062 163.594 66.2188C164.302 66.5104 164.917 66.9167 165.438 67.4375C165.958 67.9375 166.365 68.5417 166.656 69.25C166.969 69.9375 167.125 70.6667 167.125 71.4375ZM165.656 114H157.062V80.5312H165.656V114ZM185.5 105.812C185.833 105.917 186.167 105.99 186.5 106.031C186.833 106.052 187.167 106.062 187.5 106.062C188.333 106.062 189.135 105.948 189.906 105.719C190.677 105.49 191.396 105.167 192.062 104.75C192.75 104.312 193.354 103.792 193.875 103.188C194.417 102.562 194.854 101.875 195.188 101.125L201.438 107.406C200.646 108.531 199.729 109.542 198.688 110.438C197.667 111.333 196.552 112.094 195.344 112.719C194.156 113.344 192.896 113.812 191.562 114.125C190.25 114.458 188.896 114.625 187.5 114.625C185.146 114.625 182.927 114.188 180.844 113.312C178.781 112.438 176.969 111.219 175.406 109.656C173.865 108.094 172.646 106.24 171.75 104.094C170.854 101.927 170.406 99.5521 170.406 96.9688C170.406 94.3229 170.854 91.9062 171.75 89.7188C172.646 87.5312 173.865 85.6667 175.406 84.125C176.969 82.5833 178.781 81.3854 180.844 80.5312C182.927 79.6771 185.146 79.25 187.5 79.25C188.896 79.25 190.26 79.4167 191.594 79.75C192.927 80.0833 194.188 80.5625 195.375 81.1875C196.583 81.8125 197.708 82.5833 198.75 83.5C199.792 84.3958 200.708 85.4062 201.5 86.5312L185.5 105.812ZM189.875 88.2188C189.479 88.0729 189.083 87.9792 188.688 87.9375C188.312 87.8958 187.917 87.875 187.5 87.875C186.333 87.875 185.229 88.0938 184.188 88.5312C183.167 88.9479 182.271 89.5521 181.5 90.3438C180.75 91.1354 180.156 92.0938 179.719 93.2188C179.281 94.3229 179.062 95.5729 179.062 96.9688C179.062 97.2812 179.073 97.6354 179.094 98.0312C179.135 98.4271 179.188 98.8333 179.25 99.25C179.333 99.6458 179.427 100.031 179.531 100.406C179.635 100.781 179.771 101.115 179.938 101.406L189.875 88.2188Z" fill="white"/>
</svg>
