<svg width="266" height="39" viewBox="0 0 266 39" fill="none" xmlns="http://www.w3.org/2000/svg">
<path d="M28.3906 22.9922C28.3906 24.151 28.1693 25.2448 27.7266 26.2734C27.2969 27.2891 26.6979 28.181 25.9297 28.9492C25.1745 29.7044 24.2826 30.3034 23.2539 30.7461C22.2383 31.1758 21.151 31.3906 19.9922 31.3906C18.9505 31.3906 17.9479 31.2083 16.9844 30.8438C16.0339 30.4792 15.1745 29.9453 14.4062 29.2422C13.638 29.9453 12.7721 30.4792 11.8086 30.8438C10.8451 31.2083 9.84245 31.3906 8.80078 31.3906C7.64193 31.3906 6.54818 31.1758 5.51953 30.7461C4.50391 30.3034 3.61198 29.7044 2.84375 28.9492C2.08854 28.181 1.48958 27.2891 1.04688 26.2734C0.617188 25.2448 0.402344 24.151 0.402344 22.9922V2.99219H6.00781V22.9922C6.00781 23.3828 6.07943 23.7539 6.22266 24.1055C6.36589 24.444 6.5612 24.7435 6.80859 25.0039C7.06901 25.2513 7.36849 25.4466 7.70703 25.5898C8.04557 25.7331 8.41016 25.8047 8.80078 25.8047C9.19141 25.8047 9.55599 25.7331 9.89453 25.5898C10.2331 25.4466 10.526 25.2513 10.7734 25.0039C11.0339 24.7435 11.2357 24.444 11.3789 24.1055C11.5221 23.7539 11.5938 23.3828 11.5938 22.9922V2.99219H17.1992V22.9922C17.1992 23.3828 17.2708 23.7539 17.4141 24.1055C17.5573 24.444 17.7526 24.7435 18 25.0039C18.2604 25.2513 18.5599 25.4466 18.8984 25.5898C19.237 25.7331 19.6016 25.8047 19.9922 25.8047C20.3828 25.8047 20.7474 25.7331 21.0859 25.5898C21.4245 25.4466 21.7174 25.2513 21.9648 25.0039C22.2253 24.7435 22.4271 24.444 22.5703 24.1055C22.7266 23.7539 22.8047 23.3828 22.8047 22.9922V2.99219H28.3906V22.9922ZM52.8242 31H51.5352L49.4648 28.1289C48.957 28.5846 48.4167 29.0143 47.8438 29.418C47.2839 29.8086 46.6914 30.1536 46.0664 30.4531C45.4414 30.7396 44.7969 30.9674 44.1328 31.1367C43.4818 31.306 42.8177 31.3906 42.1406 31.3906C40.6693 31.3906 39.2826 31.1432 37.9805 30.6484C36.6914 30.1536 35.5586 29.4375 34.582 28.5C33.6185 27.5495 32.8568 26.3906 32.2969 25.0234C31.737 23.6562 31.457 22.1003 31.457 20.3555C31.457 18.7279 31.737 17.237 32.2969 15.8828C32.8568 14.5156 33.6185 13.3438 34.582 12.3672C35.5586 11.3906 36.6914 10.6354 37.9805 10.1016C39.2826 9.55469 40.6693 9.28125 42.1406 9.28125C42.8177 9.28125 43.4883 9.36589 44.1523 9.53516C44.8164 9.70443 45.4609 9.9388 46.0859 10.2383C46.7109 10.5378 47.3034 10.8893 47.8633 11.293C48.4362 11.6966 48.9701 12.1328 49.4648 12.6016L51.5352 10.1211H52.8242V31ZM47.4531 20.3555C47.4531 19.6263 47.3099 18.9232 47.0234 18.2461C46.75 17.556 46.3724 16.9505 45.8906 16.4297C45.4089 15.8958 44.8424 15.4727 44.1914 15.1602C43.5534 14.8346 42.8698 14.6719 42.1406 14.6719C41.4115 14.6719 40.7214 14.7956 40.0703 15.043C39.4323 15.2904 38.8724 15.6549 38.3906 16.1367C37.9219 16.6185 37.5508 17.2174 37.2773 17.9336C37.0039 18.6367 36.8672 19.444 36.8672 20.3555C36.8672 21.2669 37.0039 22.0807 37.2773 22.7969C37.5508 23.5 37.9219 24.0924 38.3906 24.5742C38.8724 25.056 39.4323 25.4206 40.0703 25.668C40.7214 25.9154 41.4115 26.0391 42.1406 26.0391C42.8698 26.0391 43.5534 25.8828 44.1914 25.5703C44.8424 25.2448 45.4089 24.8216 45.8906 24.3008C46.3724 23.7669 46.75 23.1615 47.0234 22.4844C47.3099 21.7943 47.4531 21.0846 47.4531 20.3555ZM62.2773 31H56.9062V1.76172H62.2773V31ZM71.7305 31H66.3594V1.76172H71.7305V20.1992L79.6797 10.1211H85.8125L78.8789 18.832L85.8125 31H79.6797L75.4414 23.4023L71.7305 28.3242V31ZM94.2109 4.39844C94.2109 4.89323 94.1133 5.35547 93.918 5.78516C93.7357 6.21484 93.4818 6.59245 93.1562 6.91797C92.8307 7.23047 92.4466 7.48438 92.0039 7.67969C91.5742 7.86198 91.112 7.95312 90.6172 7.95312C90.1224 7.95312 89.6536 7.86198 89.2109 7.67969C88.7812 7.48438 88.4036 7.23047 88.0781 6.91797C87.7656 6.59245 87.5117 6.21484 87.3164 5.78516C87.1341 5.35547 87.043 4.89323 87.043 4.39844C87.043 3.91667 87.1341 3.46094 87.3164 3.03125C87.5117 2.58854 87.7656 2.21094 88.0781 1.89844C88.4036 1.57292 88.7812 1.31901 89.2109 1.13672C89.6536 0.941406 90.1224 0.84375 90.6172 0.84375C91.112 0.84375 91.5742 0.941406 92.0039 1.13672C92.4466 1.31901 92.8307 1.57292 93.1562 1.89844C93.4818 2.21094 93.7357 2.58854 93.918 3.03125C94.1133 3.46094 94.2109 3.91667 94.2109 4.39844ZM93.293 31H87.9219V10.082H93.293V31ZM105.695 25.8828C105.904 25.9479 106.112 25.9935 106.32 26.0195C106.529 26.0326 106.737 26.0391 106.945 26.0391C107.466 26.0391 107.967 25.9674 108.449 25.8242C108.931 25.681 109.38 25.4792 109.797 25.2188C110.227 24.9453 110.604 24.6198 110.93 24.2422C111.268 23.8516 111.542 23.4219 111.75 22.9531L115.656 26.8789C115.161 27.582 114.589 28.2135 113.938 28.7734C113.299 29.3333 112.603 29.8086 111.848 30.1992C111.105 30.5898 110.318 30.8828 109.484 31.0781C108.664 31.2865 107.818 31.3906 106.945 31.3906C105.474 31.3906 104.087 31.1172 102.785 30.5703C101.496 30.0234 100.363 29.2617 99.3867 28.2852C98.4232 27.3086 97.6615 26.1497 97.1016 24.8086C96.5417 23.4544 96.2617 21.9701 96.2617 20.3555C96.2617 18.7018 96.5417 17.1914 97.1016 15.8242C97.6615 14.457 98.4232 13.2917 99.3867 12.3281C100.363 11.3646 101.496 10.6159 102.785 10.082C104.087 9.54818 105.474 9.28125 106.945 9.28125C107.818 9.28125 108.671 9.38542 109.504 9.59375C110.337 9.80208 111.125 10.1016 111.867 10.4922C112.622 10.8828 113.326 11.3646 113.977 11.9375C114.628 12.4974 115.201 13.1289 115.695 13.832L105.695 25.8828ZM108.43 14.8867C108.182 14.7956 107.935 14.737 107.688 14.7109C107.453 14.6849 107.206 14.6719 106.945 14.6719C106.216 14.6719 105.526 14.8086 104.875 15.082C104.237 15.3424 103.677 15.7201 103.195 16.2148C102.727 16.7096 102.355 17.3086 102.082 18.0117C101.809 18.7018 101.672 19.4831 101.672 20.3555C101.672 20.5508 101.678 20.7721 101.691 21.0195C101.717 21.2669 101.75 21.5208 101.789 21.7812C101.841 22.0286 101.9 22.2695 101.965 22.5039C102.03 22.7383 102.115 22.9466 102.219 23.1289L108.43 14.8867ZM135.129 14.2031V19.5156H118.723V14.2031H135.129ZM162.57 16.9961C162.57 18.2852 162.401 19.5286 162.062 20.7266C161.737 21.9115 161.268 23.0247 160.656 24.0664C160.044 25.0951 159.315 26.0391 158.469 26.8984C157.622 27.7448 156.678 28.474 155.637 29.0859C154.595 29.6979 153.475 30.1732 152.277 30.5117C151.092 30.8372 149.855 31 148.566 31H140.129V2.99219H148.566C149.855 2.99219 151.092 3.16146 152.277 3.5C153.475 3.82552 154.595 4.29427 155.637 4.90625C156.678 5.51823 157.622 6.25391 158.469 7.11328C159.315 7.95964 160.044 8.90365 160.656 9.94531C161.268 10.974 161.737 12.0872 162.062 13.2852C162.401 14.4701 162.57 15.707 162.57 16.9961ZM156.965 16.9961C156.965 15.8372 156.743 14.75 156.301 13.7344C155.871 12.7188 155.272 11.8333 154.504 11.0781C153.749 10.3099 152.857 9.70443 151.828 9.26172C150.812 8.81901 149.725 8.59766 148.566 8.59766H145.773V25.3945H148.566C149.725 25.3945 150.812 25.1797 151.828 24.75C152.857 24.3073 153.749 23.7083 154.504 22.9531C155.272 22.1849 155.871 21.293 156.301 20.2773C156.743 19.2487 156.965 18.1549 156.965 16.9961ZM185.949 20.3555C185.949 21.918 185.669 23.3763 185.109 24.7305C184.549 26.0716 183.788 27.237 182.824 28.2266C181.861 29.2031 180.728 29.9779 179.426 30.5508C178.137 31.1107 176.75 31.3906 175.266 31.3906C173.794 31.3906 172.408 31.1107 171.105 30.5508C169.816 29.9779 168.684 29.2031 167.707 28.2266C166.743 27.237 165.982 26.0716 165.422 24.7305C164.862 23.3763 164.582 21.918 164.582 20.3555C164.582 18.7669 164.862 17.2956 165.422 15.9414C165.982 14.5872 166.743 13.4219 167.707 12.4453C168.684 11.4557 169.816 10.681 171.105 10.1211C172.408 9.5612 173.794 9.28125 175.266 9.28125C176.75 9.28125 178.137 9.54818 179.426 10.082C180.728 10.6029 181.861 11.3516 182.824 12.3281C183.788 13.2917 184.549 14.457 185.109 15.8242C185.669 17.1784 185.949 18.6888 185.949 20.3555ZM180.578 20.3555C180.578 19.4961 180.435 18.7214 180.148 18.0312C179.875 17.3281 179.497 16.7292 179.016 16.2344C178.534 15.7266 177.967 15.3424 177.316 15.082C176.678 14.8086 175.995 14.6719 175.266 14.6719C174.536 14.6719 173.846 14.8086 173.195 15.082C172.557 15.3424 171.997 15.7266 171.516 16.2344C171.047 16.7292 170.676 17.3281 170.402 18.0312C170.129 18.7214 169.992 19.4961 169.992 20.3555C169.992 21.1628 170.129 21.9115 170.402 22.6016C170.676 23.2917 171.047 23.8906 171.516 24.3984C171.997 24.9062 172.557 25.3099 173.195 25.6094C173.846 25.8958 174.536 26.0391 175.266 26.0391C175.995 26.0391 176.678 25.9023 177.316 25.6289C177.967 25.3555 178.534 24.9714 179.016 24.4766C179.497 23.9818 179.875 23.3828 180.148 22.6797C180.435 21.9766 180.578 21.2018 180.578 20.3555ZM203.781 20.3555C203.781 19.6263 203.638 18.9232 203.352 18.2461C203.078 17.556 202.701 16.9505 202.219 16.4297C201.737 15.8958 201.171 15.4727 200.52 15.1602C199.882 14.8346 199.198 14.6719 198.469 14.6719C197.74 14.6719 197.049 14.7956 196.398 15.043C195.76 15.2904 195.201 15.6549 194.719 16.1367C194.25 16.6185 193.879 17.2174 193.605 17.9336C193.332 18.6367 193.195 19.444 193.195 20.3555C193.195 21.2279 193.332 22.0156 193.605 22.7188C193.879 23.4089 194.25 24.0013 194.719 24.4961C195.201 24.9909 195.76 25.375 196.398 25.6484C197.049 25.9089 197.74 26.0391 198.469 26.0391C199.198 26.0391 199.882 25.8828 200.52 25.5703C201.171 25.2448 201.737 24.8216 202.219 24.3008C202.701 23.7669 203.078 23.1615 203.352 22.4844C203.638 21.7943 203.781 21.0846 203.781 20.3555ZM209.152 28.3633C209.152 29.8346 208.872 31.2148 208.312 32.5039C207.753 33.793 206.984 34.9193 206.008 35.8828C205.044 36.8464 203.911 37.6081 202.609 38.168C201.32 38.7279 199.94 39.0078 198.469 39.0078L195.793 38.9688V33.6367L198.43 33.6758C199.263 33.6758 199.973 33.5651 200.559 33.3438C201.145 33.1354 201.639 32.8424 202.043 32.4648C202.447 32.1003 202.766 31.6771 203 31.1953C203.247 30.7135 203.443 30.2057 203.586 29.6719C203.378 30.0104 203.078 30.2904 202.688 30.5117C202.297 30.7201 201.861 30.8893 201.379 31.0195C200.91 31.1628 200.415 31.2604 199.895 31.3125C199.387 31.3646 198.911 31.3906 198.469 31.3906C196.997 31.3906 195.611 31.1367 194.309 30.6289C193.02 30.1211 191.887 29.3984 190.91 28.4609C189.947 27.5104 189.185 26.3516 188.625 24.9844C188.065 23.6172 187.785 22.0742 187.785 20.3555C187.785 18.7799 188.065 17.3151 188.625 15.9609C189.185 14.6068 189.947 13.4349 190.91 12.4453C191.887 11.4557 193.02 10.681 194.309 10.1211C195.611 9.5612 196.997 9.28125 198.469 9.28125C199.146 9.28125 199.816 9.36589 200.48 9.53516C201.145 9.70443 201.789 9.9388 202.414 10.2383C203.039 10.5378 203.632 10.8893 204.191 11.293C204.764 11.6966 205.298 12.1328 205.793 12.6016L207.863 10.1211H209.152V28.3633ZM228.117 20.3555C228.117 19.6263 227.974 18.9232 227.688 18.2461C227.414 17.556 227.036 16.9505 226.555 16.4297C226.073 15.8958 225.507 15.4727 224.855 15.1602C224.217 14.8346 223.534 14.6719 222.805 14.6719C222.076 14.6719 221.385 14.7956 220.734 15.043C220.096 15.2904 219.536 15.6549 219.055 16.1367C218.586 16.6185 218.215 17.2174 217.941 17.9336C217.668 18.6367 217.531 19.444 217.531 20.3555C217.531 21.2279 217.668 22.0156 217.941 22.7188C218.215 23.4089 218.586 24.0013 219.055 24.4961C219.536 24.9909 220.096 25.375 220.734 25.6484C221.385 25.9089 222.076 26.0391 222.805 26.0391C223.534 26.0391 224.217 25.8828 224.855 25.5703C225.507 25.2448 226.073 24.8216 226.555 24.3008C227.036 23.7669 227.414 23.1615 227.688 22.4844C227.974 21.7943 228.117 21.0846 228.117 20.3555ZM233.488 28.3633C233.488 29.8346 233.208 31.2148 232.648 32.5039C232.089 33.793 231.32 34.9193 230.344 35.8828C229.38 36.8464 228.247 37.6081 226.945 38.168C225.656 38.7279 224.276 39.0078 222.805 39.0078L220.129 38.9688V33.6367L222.766 33.6758C223.599 33.6758 224.309 33.5651 224.895 33.3438C225.48 33.1354 225.975 32.8424 226.379 32.4648C226.783 32.1003 227.102 31.6771 227.336 31.1953C227.583 30.7135 227.779 30.2057 227.922 29.6719C227.714 30.0104 227.414 30.2904 227.023 30.5117C226.633 30.7201 226.197 30.8893 225.715 31.0195C225.246 31.1628 224.751 31.2604 224.23 31.3125C223.723 31.3646 223.247 31.3906 222.805 31.3906C221.333 31.3906 219.947 31.1367 218.645 30.6289C217.355 30.1211 216.223 29.3984 215.246 28.4609C214.283 27.5104 213.521 26.3516 212.961 24.9844C212.401 23.6172 212.121 22.0742 212.121 20.3555C212.121 18.7799 212.401 17.3151 212.961 15.9609C213.521 14.6068 214.283 13.4349 215.246 12.4453C216.223 11.4557 217.355 10.681 218.645 10.1211C219.947 9.5612 221.333 9.28125 222.805 9.28125C223.482 9.28125 224.152 9.36589 224.816 9.53516C225.48 9.70443 226.125 9.9388 226.75 10.2383C227.375 10.5378 227.967 10.8893 228.527 11.293C229.1 11.6966 229.634 12.1328 230.129 12.6016L232.199 10.1211H233.488V28.3633ZM243.859 4.39844C243.859 4.89323 243.762 5.35547 243.566 5.78516C243.384 6.21484 243.13 6.59245 242.805 6.91797C242.479 7.23047 242.095 7.48438 241.652 7.67969C241.223 7.86198 240.76 7.95312 240.266 7.95312C239.771 7.95312 239.302 7.86198 238.859 7.67969C238.43 7.48438 238.052 7.23047 237.727 6.91797C237.414 6.59245 237.16 6.21484 236.965 5.78516C236.783 5.35547 236.691 4.89323 236.691 4.39844C236.691 3.91667 236.783 3.46094 236.965 3.03125C237.16 2.58854 237.414 2.21094 237.727 1.89844C238.052 1.57292 238.43 1.31901 238.859 1.13672C239.302 0.941406 239.771 0.84375 240.266 0.84375C240.76 0.84375 241.223 0.941406 241.652 1.13672C242.095 1.31901 242.479 1.57292 242.805 1.89844C243.13 2.21094 243.384 2.58854 243.566 3.03125C243.762 3.46094 243.859 3.91667 243.859 4.39844ZM242.941 31H237.57V10.082H242.941V31ZM255.344 25.8828C255.552 25.9479 255.76 25.9935 255.969 26.0195C256.177 26.0326 256.385 26.0391 256.594 26.0391C257.115 26.0391 257.616 25.9674 258.098 25.8242C258.579 25.681 259.029 25.4792 259.445 25.2188C259.875 24.9453 260.253 24.6198 260.578 24.2422C260.917 23.8516 261.19 23.4219 261.398 22.9531L265.305 26.8789C264.81 27.582 264.237 28.2135 263.586 28.7734C262.948 29.3333 262.251 29.8086 261.496 30.1992C260.754 30.5898 259.966 30.8828 259.133 31.0781C258.312 31.2865 257.466 31.3906 256.594 31.3906C255.122 31.3906 253.736 31.1172 252.434 30.5703C251.145 30.0234 250.012 29.2617 249.035 28.2852C248.072 27.3086 247.31 26.1497 246.75 24.8086C246.19 23.4544 245.91 21.9701 245.91 20.3555C245.91 18.7018 246.19 17.1914 246.75 15.8242C247.31 14.457 248.072 13.2917 249.035 12.3281C250.012 11.3646 251.145 10.6159 252.434 10.082C253.736 9.54818 255.122 9.28125 256.594 9.28125C257.466 9.28125 258.319 9.38542 259.152 9.59375C259.986 9.80208 260.773 10.1016 261.516 10.4922C262.271 10.8828 262.974 11.3646 263.625 11.9375C264.276 12.4974 264.849 13.1289 265.344 13.832L255.344 25.8828ZM258.078 14.8867C257.831 14.7956 257.583 14.737 257.336 14.7109C257.102 14.6849 256.854 14.6719 256.594 14.6719C255.865 14.6719 255.174 14.8086 254.523 15.082C253.885 15.3424 253.326 15.7201 252.844 16.2148C252.375 16.7096 252.004 17.3086 251.73 18.0117C251.457 18.7018 251.32 19.4831 251.32 20.3555C251.32 20.5508 251.327 20.7721 251.34 21.0195C251.366 21.2669 251.398 21.5208 251.438 21.7812C251.49 22.0286 251.548 22.2695 251.613 22.5039C251.678 22.7383 251.763 22.9466 251.867 23.1289L258.078 14.8867Z" fill="white"/>
</svg>
