<?xml version="1.0" standalone="no"?>
<!DOCTYPE svg PUBLIC "-//W3C//DTD SVG 20010904//EN"
 "http://www.w3.org/TR/2001/REC-SVG-20010904/DTD/svg10.dtd">
<svg version="1.0" xmlns="http://www.w3.org/2000/svg"
 width="868.000000pt" height="868.000000pt" viewBox="0 0 868.000000 868.000000"
 preserveAspectRatio="xMidYMid meet">
<metadata>
Created by potrace 1.14, written by Peter Selinger 2001-2017
</metadata>
<g transform="translate(0.000000,868.000000) scale(0.100000,-0.100000)"
fill="#000000" stroke="none">
<path d="M5714 6828 c-78 -38 -123 -101 -131 -184 -20 -208 221 -326 383 -186
21 18 53 71 62 102 10 35 3 129 -12 158 -58 112 -195 162 -302 110z"/>
<path d="M3650 5855 l0 -935 73 -1 c39 -1 76 -1 82 1 5 1 50 1 100 1 l90 -1
-1 933 0 932 -172 3 -172 2 0 -935z"/>
<path d="M4255 5860 c0 -750 3 -932 13 -939 7 -4 32 -5 55 -1 23 3 52 4 65 0
12 -3 65 -4 117 -2 l94 3 -1 85 0 84 78 106 c44 58 89 117 101 132 12 15 30
38 41 51 l18 24 29 -49 c16 -27 30 -51 30 -54 0 -3 19 -36 41 -75 45 -76 100
-176 136 -243 12 -24 27 -47 34 -53 11 -9 81 -12 204 -9 30 1 60 1 65 0 6 -1
34 -2 63 -1 39 1 52 5 52 16 0 8 -5 15 -12 15 -6 0 -9 3 -5 6 3 3 -5 24 -19
45 -13 21 -24 43 -24 49 0 5 -3 10 -8 10 -4 0 -15 17 -25 38 -9 20 -21 44 -27
52 -21 33 -100 172 -100 177 0 3 -8 17 -18 31 -11 15 -33 52 -49 82 -17 30
-56 100 -87 154 -31 55 -55 105 -52 110 2 6 56 76 120 156 63 80 119 150 123
155 5 6 28 35 53 65 25 30 48 59 53 65 4 5 23 30 42 55 19 25 35 47 35 50 0 3
-86 6 -191 5 l-192 0 -63 -80 c-35 -44 -67 -84 -71 -90 -24 -30 -137 -173
-151 -190 -10 -11 -62 -77 -116 -147 -55 -71 -101 -126 -104 -124 -2 3 -4 266
-4 585 l1 581 -172 0 -172 0 0 -930z"/>
<path d="M46 6708 c-11 -6 -13 -142 -12 -690 l1 -683 23 -67 c119 -347 530
-484 823 -273 l48 34 66 -44 c156 -105 360 -118 533 -33 58 29 74 41 137 103
68 68 79 83 108 151 51 116 50 107 51 827 1 372 -1 677 -4 678 -3 0 -83 1
-178 2 l-172 2 -1 -35 c0 -19 -1 -321 -2 -670 l-2 -635 -30 -42 c-52 -73 -141
-99 -221 -63 -45 19 -88 69 -98 113 -4 16 -7 321 -7 678 0 357 -3 649 -7 650
-4 0 -83 1 -177 2 l-170 1 -5 -670 c-5 -610 -7 -672 -22 -701 -18 -32 -56 -63
-93 -77 -98 -37 -209 18 -233 116 -6 27 -10 270 -10 668 0 344 -1 634 -1 645
-1 19 -8 20 -167 20 -91 0 -171 -3 -178 -7z"/>
<path d="M2548 6291 c-38 -9 -68 -16 -68 -15 0 6 -130 -62 -169 -89 -39 -27
-117 -101 -146 -139 -58 -75 -107 -187 -129 -292 -13 -65 -14 -258 -1 -321 14
-68 52 -168 88 -230 157 -269 536 -386 824 -254 57 27 174 103 199 130 9 10
20 19 24 19 3 0 33 -37 65 -82 32 -46 64 -86 69 -90 6 -4 28 -8 49 -8 l37 0
-2 668 -3 667 -38 1 c-40 1 -38 3 -149 -129 l-23 -28 -30 26 c-72 64 -186 129
-275 159 -78 27 -235 30 -322 7z m223 -334 c85 -17 188 -101 232 -190 56 -115
55 -222 -3 -337 -25 -50 -122 -150 -145 -150 -8 0 -15 -4 -15 -9 0 -5 -15 -12
-32 -16 -18 -4 -40 -9 -48 -11 -63 -15 -170 4 -236 43 -108 62 -167 198 -153
355 15 173 117 293 269 315 19 3 36 6 38 8 3 3 61 -2 93 -8z"/>
<path d="M6758 6305 c-2 -2 -19 -6 -38 -9 -45 -6 -68 -11 -105 -26 -37 -14
-118 -53 -125 -60 -3 -3 -23 -17 -45 -32 -89 -61 -174 -170 -220 -283 -40 -98
-53 -174 -53 -290 0 -178 41 -310 141 -445 113 -153 318 -259 514 -264 92 -2
235 26 311 61 31 15 59 30 62 33 3 3 23 17 45 32 47 31 99 79 138 127 l28 34
-123 124 c-67 67 -126 123 -130 123 -5 0 -8 -7 -8 -16 0 -8 -26 -41 -57 -73
-42 -41 -75 -63 -118 -79 -97 -36 -231 -28 -184 10 13 11 72 81 114 136 6 7
17 21 26 30 8 9 37 44 65 77 27 33 51 62 54 65 3 3 16 19 29 35 12 17 40 50
61 75 121 142 270 326 270 333 0 5 -35 43 -78 85 -130 130 -292 198 -474 200
-53 1 -97 -1 -100 -3z m171 -350 c17 -5 19 -9 9 -19 -7 -7 -96 -124 -198 -259
-101 -136 -188 -243 -193 -238 -16 16 -33 118 -31 182 8 173 119 313 269 336
17 3 31 6 33 8 5 4 89 -3 111 -10z"/>
<path d="M5637 6253 c-2 -5 -3 -305 -3 -668 l1 -660 45 -5 c25 -3 63 -3 85 0
22 3 58 3 80 0 22 -3 61 -3 87 -2 l47 4 0 669 0 669 -169 0 c-93 0 -170 -3
-173 -7z"/>
<path d="M7612 5990 c-6 -4 -8 -233 -3 -315 1 -20 7 -20 524 -20 l522 0 1 168
c0 92 -2 168 -5 168 -19 4 -1034 3 -1039 -1z"/>
<path d="M6400 4244 c-90 -34 -153 -96 -167 -164 -44 -216 195 -370 364 -234
130 106 109 303 -42 380 -32 17 -129 28 -155 18z"/>
<path d="M75 4110 l-30 -5 0 -890 1 -890 339 0 c387 1 433 7 592 86 349 173
549 544 497 924 -46 339 -295 636 -615 734 -62 19 -85 25 -159 37 -44 7 -585
11 -625 4z m607 -364 c92 -15 213 -80 284 -153 45 -45 110 -133 100 -133 -3 0
3 -17 14 -37 11 -21 21 -49 24 -63 2 -14 5 -25 6 -25 4 0 12 -76 12 -115 1
-65 -14 -159 -29 -183 -4 -6 -8 -18 -9 -25 -4 -26 -69 -124 -111 -167 -83 -86
-196 -145 -305 -160 -60 -9 -247 -10 -255 -2 -7 7 -7 1053 0 1064 6 9 212 9
269 -1z"/>
<path d="M2132 3690 c-164 -43 -289 -128 -387 -265 -40 -56 -92 -157 -100
-194 -2 -9 -10 -44 -18 -77 -17 -70 -16 -258 1 -312 6 -18 11 -36 11 -40 3
-29 41 -118 74 -174 257 -429 867 -445 1146 -29 84 127 120 257 116 424 -2 61
-8 130 -15 152 -6 22 -13 49 -15 61 -9 41 -48 120 -91 184 -80 121 -192 205
-339 255 -67 23 -84 26 -205 30 -80 3 -122 -1 -178 -15z m273 -345 c44 -15 98
-48 132 -81 20 -19 74 -112 79 -136 29 -138 24 -205 -23 -304 -47 -101 -146
-169 -266 -183 -257 -29 -442 248 -341 511 66 170 243 252 419 193z"/>
<path d="M3618 3690 c-234 -61 -413 -230 -487 -462 -7 -20 -14 -47 -16 -60 -3
-13 -8 -43 -13 -68 -11 -62 -4 -214 13 -280 1 -3 5 -21 9 -40 11 -48 60 -152
95 -203 44 -64 125 -143 180 -175 189 -110 369 -133 591 -77 23 6 68 29 83 42
27 26 28 11 2 -46 -30 -64 -79 -113 -142 -143 -41 -19 -69 -23 -185 -26 l-138
-4 -1 -51 c-2 -147 0 -280 5 -284 13 -13 246 -4 316 12 86 20 142 43 215 90
115 73 213 189 266 314 52 124 55 171 54 825 l-2 600 -38 1 c-30 2 -44 -4 -64
-25 -26 -28 -91 -105 -102 -123 -4 -5 -35 14 -70 42 -74 61 -205 127 -286 146
-76 18 -206 16 -285 -5z m232 -334 c51 -10 136 -65 176 -113 19 -23 47 -68 62
-100 22 -49 27 -72 27 -143 0 -75 -4 -93 -32 -150 -28 -59 -99 -150 -116 -150
-4 0 -24 -11 -45 -24 -45 -28 -91 -39 -152 -37 -57 2 -83 7 -109 21 -12 6 -21
8 -21 5 0 -10 -73 47 -106 82 -33 35 -72 107 -81 150 -4 16 -6 69 -6 118 0 78
4 98 30 155 31 66 80 130 101 130 7 0 12 4 12 9 0 11 73 41 115 48 17 3 31 6
33 7 4 4 73 -1 112 -8z"/>
<path d="M5214 3698 c-3 -5 -11 -8 -17 -7 -21 4 -100 -22 -162 -53 -101 -51
-177 -115 -240 -203 -42 -59 -93 -152 -100 -184 -3 -9 -12 -43 -21 -76 -17
-63 -23 -222 -11 -307 7 -48 38 -152 59 -198 23 -48 98 -155 130 -186 130
-123 295 -186 483 -187 138 0 249 29 308 81 23 21 22 8 -8 -52 -65 -133 -155
-178 -346 -175 -60 1 -113 -2 -116 -5 -8 -8 -10 -314 -3 -327 7 -11 204 -14
275 -4 122 17 267 92 366 187 55 53 129 147 129 164 0 2 11 27 24 54 22 45 30
70 43 130 11 52 13 154 13 670 1 316 1 589 0 607 0 30 -2 32 -40 31 -41 0 -36
4 -152 -132 l-24 -29 -30 28 c-72 68 -209 142 -311 169 -58 15 -241 18 -249 4z
m224 -352 c178 -64 283 -285 219 -462 -88 -244 -357 -323 -544 -160 -40 35
-86 113 -99 166 -11 45 -12 181 -2 219 37 134 134 230 252 248 17 3 32 6 34 7
7 8 103 -5 140 -18z"/>
<path d="M7371 3699 c-211 -40 -394 -178 -479 -362 -40 -86 -51 -120 -68 -222
-18 -104 -2 -276 35 -370 110 -282 348 -448 641 -448 194 1 373 79 505 221 58
63 59 61 -74 194 -67 66 -123 119 -125 117 -2 -2 -15 -23 -29 -46 -58 -93
-195 -156 -314 -145 -30 3 -46 25 -25 34 4 2 35 37 67 78 54 67 92 113 120
144 6 6 30 36 55 66 25 30 49 60 55 66 5 6 24 28 40 50 17 21 39 48 50 60 11
13 36 42 55 65 19 23 40 47 45 53 6 6 38 45 72 87 71 88 72 83 -21 173 -95 92
-209 153 -340 181 -65 15 -198 16 -265 4z m197 -338 c35 -2 40 8 -113 -195
-11 -15 -58 -77 -104 -139 -46 -62 -87 -114 -90 -117 -3 -3 -17 -22 -31 -42
-14 -21 -28 -38 -31 -38 -11 0 -31 84 -34 147 -4 67 15 165 41 216 37 72 141
149 219 163 16 3 31 6 32 8 1 1 22 1 45 0 24 -1 53 -3 66 -3z"/>
<path d="M6286 3652 c-2 -4 -3 -304 -3 -667 l1 -660 100 -5 c56 -3 133 -4 171
-2 l71 3 -1 667 0 667 -168 2 c-92 0 -169 -2 -171 -5z"/>
</g>
</svg>
